<svg width="1498" height="1354" xmlns="http://www.w3.org/2000/svg" xmlns:xlink="http://www.w3.org/1999/xlink" xml:space="preserve" overflow="hidden"><g transform="translate(-1390 -513)"><path d="M-1.13509 1351.97-1.13509-1.0259 1495.87-1.0259 1495.87 1351.97-1.13509 1351.97" fill="#0070D2" fill-rule="evenodd" transform="matrix(1 0 0 -1 1392 1865)"/><path d="M392.682 326.083 338.893 337.839C284.154 349.803 227.591 327.678 195.572 281.77 121.403 175.426-4.18986-4.83526-1.26843-1.91847 1.37882 0.722083 133.126 34.3161 227.852 58.2158 266.246 151.113 321.465 240.821 392.682 326.083" fill="#FFFFFF" fill-rule="evenodd" transform="matrix(1 0 0 -1 1635 1368)"/><path d="M326.106 392.848C240.845 321.632 151.137 266.415 58.2403 228.019 34.3407 133.292 0.746569 1.54333-1.89613-1.10176-4.81254-4.02319 175.45 121.569 281.793 195.738 327.701 227.757 349.827 284.32 337.862 339.06L326.106 392.848" fill="#FFFFFF" fill-rule="evenodd" transform="matrix(1 0 0 -1 2067 1800)"/><path d="M290.384 290.183C290.384 290.183 169.556 304.126-2.51607 232.763L232.962-2.71644C304.325 169.356 290.384 290.183 290.384 290.183" fill="#FFFFFF" fill-rule="evenodd" transform="matrix(1 0 0 -1 2471 964)"/><path d="M625.075 411.117C566.006 352.048 470.231 352.048 411.162 411.117 352.09 470.188 352.09 565.96 411.162 625.029 470.231 684.1 566.006 684.1 625.075 625.029 684.146 565.96 684.146 470.188 625.075 411.117ZM244.199 586.864C113.106 455.774 39.3116 328.552-2.00908 222.573L222.617-2.05489C328.597 39.2678 455.817 113.064 586.909 244.155 702.443 359.686 773.471 472.213 816.991 569.843L569.887 816.945C472.258 773.425 359.731 702.398 244.199 586.864" fill="#FFFFFF" fill-rule="evenodd" transform="matrix(1 0 0 -1 1878 1557)"/><path d="M322.338 333.014C272.533 381.61 182.166 449.489 79.5471 330.621 13.2016 253.77-1.32261 124.215-1.32261 124.215-1.32261 124.215 32.6792 191.481 72.1967 212.674 111.712 233.868 6.0303-4.79161 7.86753-1.10503 9.70657 2.58335 201.771 147.249 217.393 113.158 233.017 79.0622 153.066 13.638 153.066 13.638 153.066 13.638 291.079 54.2182 339.618 114.079 389.346 175.406 415.668 241.951 322.338 333.014" fill="#FFFFFF" fill-rule="evenodd" transform="matrix(1 0 0 -1 1643 1805)"/></g></svg>